<svg xmlns="http://www.w3.org/2000/svg" width="1000" height="320" viewBox="0 0 1000 320" role="img" aria-labelledby="title desc">
  <title id="title">ARYAN SAINI - STUDYING UNDERGRADUATE COMPUTER SCIENCE &amp; ARTIFICAL INTELLIGENCE</title>
  <desc id="desc">A dark minimalist brutalist banner with oversized white type, sharp borders, and a red geometric accent.</desc>
  <rect x="12" y="12" width="987" height="307" fill="#565656" />
  <rect x="1.5" y="1.5" width="985" height="305" fill="#111111" stroke="#ededed" stroke-width="3" />
  <path d="M33 33H65M33 33V65" fill="none" stroke="#ededed" stroke-width="3" />
  <text x="32" y="139" fill="#ededed" font-family="DejaVu Sans, sans-serif" font-size="92" font-weight="900" letter-spacing="-5">ARYAN SAINI</text>
  <path d="M33 169H952" stroke="#ededed" stroke-width="3" />
  <g fill="#ededed" font-family="DejaVu Sans Mono, monospace" font-size="18" font-weight="600" letter-spacing="0.2">
    <text x="34" y="212">- STUDYING UNDERGRADUATE</text>
    <text x="34" y="245">COMPUTER SCIENCE &amp; ARTIFICAL INTELLIGENCE</text>
  </g>
  <g transform="translate(852 50)">
    <rect x="0" y="0" width="48" height="48" fill="#ff4b45" />
    <rect x="48" y="0" width="48" height="48" fill="#ededed" />
    <rect x="0" y="48" width="48" height="48" fill="#ededed" />
    <rect x="48" y="48" width="48" height="48" fill="#111111" stroke="#ededed" stroke-width="3" />
  </g>
  <rect x="848" y="194" width="104" height="80" fill="#ff4b45" stroke="#ededed" stroke-width="3" />
  <path d="M872 250V218H904M904 250H928V218" fill="none" stroke="#111111" stroke-width="5" />
  <rect x="34" y="274" width="52" height="6" fill="#ededed" />
  <rect x="92" y="274" width="19" height="6" fill="#ededed" />
  <rect x="117" y="274" width="6" height="6" fill="#ededed" />
</svg>
